<svg xmlns="http://www.w3.org/2000/svg" version="1.1" xmlns:xlink="http://www.w3.org/1999/xlink" xmlns:svgjs="http://svgjs.dev/svgjs" width="2000" height="2242" viewBox="0 0 2000 2242"><g transform="matrix(1,0,0,1,-3.1126417445477728,0)"><svg viewBox="0 0 321 360" data-background-color="#61777f" preserveAspectRatio="xMidYMid meet" height="2242" width="2000" xmlns="http://www.w3.org/2000/svg" xmlns:xlink="http://www.w3.org/1999/xlink"><g id="tight-bounds" transform="matrix(1,0,0,1,0.49957899999992605,0)"><svg viewBox="0 0 320 360" height="360" width="320"><g><svg></svg></g><g><svg viewBox="0 0 320 360" height="360" width="320"><g><path transform="translate(-9.31575,10.66434) scale(0.39811,0.39811)" d="M827.2 486c-0.2-21.2-13.6-38-13.8-59.2-0.1-21.2 13.1-46.8 12.9-68-6.7-20.1-24.7-31.9-31.4-52-6.7-20.1-2.1-48.6-8.7-68.7-12.6-17.1-33.4-22.7-45.9-39.7-12.6-17.1-17-45.6-29.5-62.6-17.2-12.3-38.7-11.3-56-23.6-17.2-12.3-30.2-38.1-47.5-50.4-20.2-6.4-40.3 1.3-60.5-5.2-20.2-6.4-40.5-26.9-60.7-33.3-21.2 0.2-38 13.6-59.2 13.8-21.2 0.1-46.8-13.1-68-12.9-20.1 6.7-31.9 24.7-52 31.4-20.1 6.7-48.6 2.1-68.7 8.8-17.1 12.6-22.7 33.4-39.7 45.9-17.1 12.6-45.6 17-62.6 29.6-12.3 17.2-11.3 38.7-23.6 56-12.3 17.2-38.1 30.2-50.4 47.5-6.4 20.2 1.2 40.3-5.2 60.5-6.4 20.2-26.9 40.5-33.3 60.7 0.1 21.2 13.6 38 13.8 59.2 0.1 21.2-13.1 46.8-12.9 68 6.7 20.1 24.7 31.9 31.4 52 6.7 20.1 2.1 48.6 8.8 68.7 12.6 17.1 33.4 22.7 45.9 39.8 12.6 17.1 17 45.6 29.5 62.6 17.2 12.3 38.7 11.3 56 23.6 17.2 12.3 30.2 38.1 47.5 50.4 20.2 6.4 40.3-1.2 60.5 5.2 20.2 6.4 40.5 26.9 60.7 33.3 21.2-0.2 38-13.6 59.2-13.8 21.2-0.1 46.8 13.1 68 12.9 20.1-6.7 31.9-24.7 52-31.4 20.1-6.7 48.6-2.1 68.7-8.8 17.1-12.6 22.7-33.4 39.8-45.9 17.1-12.6 45.6-17 62.6-29.5 12.3-17.2 11.3-38.7 23.6-56 12.3-17.2 38.1-30.2 50.4-47.5 6.4-20.2-1.2-40.3 5.2-60.5 6.2-20.4 26.7-40.7 33.1-60.9zM792 544.4c-9.1 17.9-31.4 33.8-40.6 51.7-9.1 17.9-5.1 37.9-14.2 55.8-14.2 14.2-40.3 22.4-54.6 36.6-14.2 14.2-16.5 34.5-30.8 48.7-17.9 9.1-45.3 8.8-63.2 18-17.9 9.1-26.4 27.7-44.3 36.8-19.9 3.1-45.8-5.6-65.7-2.5-19.9 3.1-33.7 18.2-53.5 21.3-19.9-3.1-41.8-19.5-61.7-22.6-19.9-3.2-37.6 6.9-57.5 3.7-17.9-9.1-33.8-31.5-51.7-40.6-17.9-9.1-37.9-5.1-55.9-14.2-14.2-14.2-22.4-40.3-36.6-54.6-14.2-14.2-34.5-16.6-48.7-30.8-9.1-17.9-8.8-45.3-18-63.2-9.1-17.9-27.7-26.4-36.8-44.3-3.1-19.9 5.6-45.8 2.5-65.7-3.2-19.9-18.2-33.7-21.3-53.5 3.2-19.9 19.5-41.8 22.6-61.7 3.1-19.9-6.9-37.6-3.7-57.5 9.1-17.9 31.5-33.8 40.6-51.7 9.1-17.9 5.1-37.9 14.2-55.9 14.2-14.2 40.3-22.4 54.6-36.6 14.2-14.2 16.6-34.5 30.8-48.7 17.9-9.1 45.3-8.8 63.2-18 17.9-9.1 26.4-27.7 44.3-36.8 19.9-3.1 45.8 5.6 65.7 2.5 19.9-3.1 33.7-18.2 53.5-21.3 19.9 3.1 41.8 19.5 61.7 22.6 19.9 3.2 37.6-6.9 57.5-3.7 17.9 9.1 33.8 31.5 51.7 40.6 17.9 9.1 37.9 5.1 55.9 14.2 14.2 14.2 22.4 40.3 36.6 54.6 14.2 14.2 34.5 16.6 48.7 30.8 9.1 17.9 8.8 45.3 18 63.2 9.1 17.9 27.7 26.4 36.8 44.3 3.2 19.9-5.6 45.8-2.5 65.7 3.1 19.9 18.2 33.7 21.3 53.5-3.1 19.9-19.5 41.8-22.6 61.7-3.1 19.9 6.9 37.7 3.7 57.6z" fill="#ffffff" fill-rule="nonzero" stroke="none" stroke-width="1" stroke-linecap="butt" stroke-linejoin="miter" stroke-miterlimit="10" stroke-dasharray="" stroke-dashoffset="0" font-family="none" font-weight="none" font-size="none" text-anchor="none" style="mix-blend-mode: normal" data-fill-palette-color="tertiary"></path></g><g transform="matrix(1,0,0,1,67.57631270707382,80.99999999999999)"><svg viewBox="0 0 184.84737458585235 198.00000000000003" height="198.00000000000003" width="184.84737458585235"><g><svg viewBox="0 0 224 239.93849033219956" height="198.00000000000003" width="184.84737458585235"><g transform="matrix(1,0,0,1,0,152.33349545911878)"><svg viewBox="0 0 224 87.60499487308078" height="87.60499487308078" width="224"><g id="textblocktransform"><svg viewBox="0 0 224 87.60499487308078" height="87.60499487308078" width="224" id="textblock"><g><svg viewBox="0 0 224 58.88" height="58.88" width="224"><g transform="matrix(1,0,0,1,0,0)"><svg width="224" viewBox="-0.05 -33.45 166.24 43.7" height="58.88" data-palette-color="#ffffff"><path d="M47.3-14.3L47.3-14.3 52.15-14.4Q53.95-14.4 53.95-14.15L53.95-14.15Q53.95-13.5 46.65-13L46.65-13Q42-3.9 42-0.6L42-0.6Q42 1.7 43.45 1.7L43.45 1.7Q44 1.7 44.83 1.03 45.65 0.35 45.83 0.35 46 0.35 46 0.6L46 0.6Q45.75 1.5 44.48 2.1 43.2 2.7 42.33 2.7 41.45 2.7 40.95 2.6L40.95 2.6Q39.75 2.15 39.75-0.3L39.75-0.3Q39.75-5.35 43.6-13.15L43.6-13.15 37.6-13Q30.9-6.45 24.15-1.5L24.15-1.5Q14.05 5.85 8.35 5.85L8.35 5.85Q8 5.85 7.65 5.8L7.65 5.8Q-0.05 5.15-0.05-2.1L-0.05-2.1Q-0.05-6.4 2.65-11.2L2.65-11.2Q6.25-17.6 12.5-22.13 18.75-26.65 23.7-26.65 28.65-26.65 28.65-23L28.65-23Q28.65-20.55 27.15-17.55 25.65-14.55 24.1-13.75L24.1-13.75Q23.95-13.7 23.78-13.7 23.6-13.7 23.6-13.8L23.6-13.8 25.25-16.5Q26.95-19.15 26.95-21.15 26.95-23.15 26.08-24.38 25.2-25.6 23.3-25.6L23.3-25.6Q19.4-25.6 13.98-21.25 8.55-16.9 5.73-10.55 2.9-4.2 2.9-0.65L2.9-0.65Q2.9 4.7 8.35 4.7L8.35 4.7Q13.55 4.7 22.45-2L22.45-2Q26.4-4.95 35.3-13.15L35.3-13.15Q33.55-13.05 32.05-12.8L32.05-12.8Q28.85-12.2 29.05-13L29.05-13Q29.25-14.85 30.95-14.85L30.95-14.85Q34.25-14.45 36.5-14.45L36.5-14.45Q40.8-18.4 49.35-27.4L49.35-27.4Q55.1-33.45 56.35-33.45L56.35-33.45Q56.9-33.45 56.9-32.6 56.9-31.75 56.45-29.95 56-28.15 55.45-27.75L55.45-27.75Q54.3-26.95 53.3-25.58 52.3-24.2 50.45-20.43 48.6-16.65 47.3-14.3ZM51.3-26.5L51.3-26.5 38.5-14.5 41.45-14.5Q42.5-14.45 44.05-14.45L44.05-14.45Q45.5-17.3 51.3-26.5ZM67.6-14.95L67.6-14.95 68.3-15.1Q68.85-15.1 69.35-14.65 69.85-14.2 69.85-13.95 69.85-13.7 66.75-9.13 63.65-4.55 63.65-2.75L63.65-2.75Q63.65-2.6 63.7-2.45L63.7-2.45Q63.95-1.3 64.8-1.3L64.8-1.3Q67.4-1.3 74.3-9.9L74.3-9.9Q74.45-10.1 74.65-10.1 74.85-10.1 74.85-9.73 74.85-9.35 74.4-8.75L74.4-8.75Q68-0.2 64.65-0.2L64.65-0.2Q64.2-0.2 63.8-0.35L63.8-0.35Q61.6-1.2 61.6-3.65L61.6-3.65Q61.6-4.5 61.8-5.35L61.8-5.35 58.7-2.35Q55.75 0.25 54.42 0.25 53.1 0.25 51.9-0.6L51.9-0.6Q50.55-1.6 50.55-3.25L50.55-3.25Q50.55-6.9 55.65-11.98 60.75-17.05 65-17.05L65-17.05Q66.65-17.05 67.2-15.9L67.2-15.9Q67.35-15.5 67.45-15.23 67.55-14.95 67.6-14.95ZM52.65-2.65L52.65-2.65Q52.65-0.85 53.9-0.85L53.9-0.85Q56.8-0.85 61.8-7.2L61.8-7.2 67.1-14.5Q66.7-15.2 65.8-15.2L65.8-15.2Q62.75-15.2 57.7-10.48 52.65-5.75 52.65-2.65ZM81.8 0.25L81.8 0.25Q78.05 0.25 78.05-3.9L78.05-3.9Q78.05-6 79.14-8.5 80.25-11 81.55-12.7L81.55-12.7Q81.3-12.65 80.89-12.65L80.89-12.65Q79.69-12.65 78.89-14.35L78.89-14.35 75.19-9.55Q72.09-5.7 71.59-5.7L71.59-5.7Q71.34-5.7 71.34-5.9L71.34-5.9Q71.34-6.4 72.19-7.35L72.19-7.35Q76.55-12.4 78.34-15.9L78.34-15.9Q79.5-20.25 81.25-20.25L81.25-20.25Q82.39-20.25 82.39-19.25 82.39-18.25 81.14-16.7L81.14-16.7 79.94-15.1Q79.94-14.05 81.5-14.05L81.5-14.05Q82.39-14.05 83.5-14.7L83.5-14.7 84.8-15.5Q84.89-15.55 85.3-15.55 85.69-15.55 86.14-15.05 86.59-14.55 86.44-14.15L86.44-14.15 83-9.8Q79.8-5.7 79.8-3.33 79.8-0.95 82-0.95L82-0.95Q84.3-0.95 87.64-3.4L87.64-3.4Q89.64-4.85 91.3-6.65L91.3-6.65Q92.84-8.45 93-8.45L93-8.45Q93.34-8.45 93.34-8.08 93.34-7.7 92.89-7.2L92.89-7.2 91.3-5.4Q89.94-4 88.3-2.7L88.3-2.7Q84.34 0.25 81.8 0.25ZM104.34-10.6L104.34-10.6Q104.34-8.85 100.99-4.75L100.99-4.75Q97.04 0.1 94.24 0.1L94.24 0.1 93.44 0.1Q92.14 0.1 91.39-1.25L91.39-1.25Q90.79-2.2 90.79-3.35L90.79-3.35Q90.79-6.35 95.17-11.78 99.54-17.2 102.24-17.2L102.24-17.2Q104.79-17.2 104.79-14.5L104.79-14.5Q104.79-13.8 104.54-12.7L104.54-12.7Q104.59-12.55 105.49-12.55 106.39-12.55 108.24-13.5L108.24-13.5Q108.19-12.65 104.29-11.05L104.29-11.05Q104.34-10.85 104.34-10.6ZM101.09-13.2L101.09-13.2Q99.39-13.2 96.27-9.2 93.14-5.2 93.14-3.3 93.14-1.4 94.34-1.4L94.34-1.4Q96.49-1.4 99.79-5.3 103.09-9.2 103.09-10.9L103.09-10.9Q102.29-11.35 101.09-13.2ZM122.04-15.25L122.04-15.25 122.74-15.4Q123.39-15.4 123.77-15 124.14-14.6 124.14-14.38 124.14-14.15 124.09-13.88 124.04-13.6 122.64-11.35L122.64-11.35Q120.89-8.3 119.74-6.2L119.74-6.2Q115.69 1.35 113.54 4.15L113.54 4.15Q108.94 10.25 104.79 10.25L104.79 10.25Q103.34 10.25 102.27 9.03 101.19 7.8 101.14 6.3L101.14 6.3Q101.29 5.7 101.59 5.7L101.59 5.7Q101.74 5.7 101.84 6.05L101.84 6.05Q102.09 7.35 102.79 8.05 103.49 8.75 104.19 8.75L104.19 8.75Q107.04 8.75 110.29 5L110.29 5Q112.44 2.5 115.04-2.3L115.04-2.3 117.54-7.25 113.79-3.45Q110.19 0 108.87 0 107.54 0 106.34-0.9L106.34-0.9Q104.99-1.9 104.99-3.55L104.99-3.55Q104.99-7.2 110.12-12.25 115.24-17.3 119.44-17.3L119.44-17.3Q121.14-17.3 121.64-16.2L121.64-16.2Q121.79-15.8 121.89-15.53 121.99-15.25 122.04-15.25ZM107.09-2.95L107.09-2.95Q107.09-1.15 108.34-1.15L108.34-1.15Q111.24-1.15 116.24-7.5L116.24-7.5 121.54-14.8Q121.24-15.5 120.29-15.5L120.29-15.5Q117.19-15.5 112.14-10.73 107.09-5.95 107.09-2.95ZM121.04 5.8L121.04 5.8Q123.44 8.8 125.19 8.8L125.19 8.8Q128.04 8.8 131.34 4.25L131.34 4.25Q133.74 0.9 136.04-4.2L136.04-4.2 137.94-8.8 130.59-3.05Q127.19-0.4 125.14-0.4L125.14-0.4Q124.04-0.4 123.39-1.15 122.74-1.9 122.74-2.85L122.74-2.85Q122.74-5 126.44-9.93 130.14-14.85 131.84-14.85 133.54-14.85 133.54-13.7L133.54-13.7Q133.54-13.25 129.11-8.53 124.69-3.8 124.69-2.15L124.69-2.15Q124.69-1.5 125.54-1.5L125.54-1.5Q127.14-1.5 131.96-5.25 136.79-9 139.24-11.45L139.24-11.45Q139.79-12.1 140.79-13.4L140.79-13.4Q141.74-14.5 142.89-14.5 144.04-14.5 144.04-13.4L144.04-13.4Q144.04-13.2 141.79-9.85 139.54-6.5 139.44-6.3L139.44-6.3Q137.89-3.3 134.69 2.45L134.69 2.45Q129.84 10.25 124.99 10.25L124.99 10.25Q123.39 10.25 122.19 8.88 120.99 7.5 121.04 5.8ZM158.94-14.95L158.94-14.95 159.64-15.1Q160.19-15.1 160.69-14.65 161.19-14.2 161.19-13.95 161.19-13.7 158.09-9.13 154.99-4.55 154.99-2.75L154.99-2.75Q154.99-2.6 155.03-2.45L155.03-2.45Q155.28-1.3 156.14-1.3L156.14-1.3Q158.74-1.3 165.64-9.9L165.64-9.9Q165.79-10.1 165.99-10.1 166.19-10.1 166.19-9.73 166.19-9.35 165.74-8.75L165.74-8.75Q159.34-0.2 155.99-0.2L155.99-0.2Q155.53-0.2 155.14-0.35L155.14-0.35Q152.94-1.2 152.94-3.65L152.94-3.65Q152.94-4.5 153.14-5.35L153.14-5.35 150.03-2.35Q147.09 0.25 145.76 0.25 144.44 0.25 143.24-0.6L143.24-0.6Q141.89-1.6 141.89-3.25L141.89-3.25Q141.89-6.9 146.99-11.98 152.09-17.05 156.34-17.05L156.34-17.05Q157.99-17.05 158.53-15.9L158.53-15.9Q158.69-15.5 158.78-15.23 158.89-14.95 158.94-14.95ZM143.99-2.65L143.99-2.65Q143.99-0.85 145.24-0.85L145.24-0.85Q148.14-0.85 153.14-7.2L153.14-7.2 158.44-14.5Q158.03-15.2 157.14-15.2L157.14-15.2Q154.09-15.2 149.03-10.48 143.99-5.75 143.99-2.65Z" opacity="1" transform="matrix(1,0,0,1,0,0)" fill="#ffffff" class="wordmark-text-0" data-fill-palette-color="primary" id="text-0"></path></svg></g></svg></g><g transform="matrix(1,0,0,1,0,72.78015488)"><svg viewBox="0 0 224 14.824839993080781" height="14.824839993080781" width="224"><g transform="matrix(1,0,0,1,0,0)"><svg width="224" viewBox="4.44 -35.99 705.6899999999999 46.71" height="14.824839993080781" data-palette-color="#ffffff"><path d="M27.88-21.17L27.88-35.11 32.47-35.11 32.47 0 27.88 0 27.88-17.41 9.03-17.41 9.03 0 4.44 0 4.44-35.11 9.03-35.11 9.03-21.17 27.88-21.17ZM58.79-4.71L60.01-1.42Q57.3-0.34 54.92 0.12 52.54 0.59 50.66 0.59L50.66 0.59Q47.78 0.59 45.63-0.33 43.48-1.25 42.05-2.91 40.63-4.57 39.9-6.87 39.18-9.18 39.18-11.96L39.18-11.96Q39.18-13.67 39.43-15.38 39.67-17.09 40.21-18.64 40.75-20.19 41.61-21.53 42.48-22.88 43.73-23.85 44.97-24.83 46.63-25.39 48.29-25.95 50.42-25.95L50.42-25.95Q55.86-25.95 58.62-22.55 61.38-19.14 61.38-12.79L61.38-12.79 61.38-11.45 43.51-11.45Q43.51-9.4 43.95-7.82 44.38-6.25 45.3-5.16 46.22-4.08 47.62-3.52 49.02-2.95 50.95-2.95L50.95-2.95Q52.03-2.95 53.09-3.11 54.15-3.27 55.15-3.53 56.15-3.78 57.07-4.1 57.98-4.42 58.79-4.71L58.79-4.71ZM43.63-14.82L57.15-14.82Q56.96-18.77 55.26-20.59 53.56-22.41 50.42-22.41L50.42-22.41Q47.27-22.41 45.62-20.59 43.97-18.77 43.63-14.82L43.63-14.82ZM69.41-20.9L69.41-20.9 68.33-24.32Q72.44-25.95 76.93-25.95L76.93-25.95Q80.86-25.95 82.93-24.63L82.93-24.63Q85.3-23.12 85.3-19.48L85.3-19.48 85.3-9.5Q85.3-7.5 85.35-5.4L85.35-5.4Q85.38-4.15 85.6-2.81L85.6-2.81Q85.79-1.54 86.11-0.39L86.11-0.39 82.1 0.49Q81.54-1.15 81.4-3.17L81.4-3.17 80.91-3.22Q77.88 0.59 73.19 0.59L73.19 0.59Q69.78 0.59 67.7-1.31 65.63-3.2 65.63-6.64L65.63-6.64Q65.63-9.2 66.76-10.84 67.9-12.48 69.97-13.6L69.97-13.6Q73.24-15.38 79.13-15.38L79.13-15.38Q79.91-15.38 81.23-15.33L81.23-15.33 81.23-19.04Q81.23-20.8 80.15-21.58 79.08-22.36 76.78-22.36L76.78-22.36Q73.44-22.36 69.41-20.9ZM81.23-7.13L81.23-7.13 81.23-12.26Q80.57-12.3 79.3-12.3L79.3-12.3Q77.15-12.3 75.34-11.94L75.34-11.94Q72.66-11.4 71.18-10.24 69.7-9.08 69.7-6.91L69.7-6.91Q69.7-3 73.95-3L73.95-3Q76.15-3 78.05-4.17L78.05-4.17Q79.61-5.15 81.23-7.13ZM96.85-35.11L96.85-9.86Q96.85-7.86 96.9-6.51 96.95-5.15 97.02-4.13L97.02-4.13Q97.09-3.1 97.25-2.27 97.41-1.44 97.66-0.44L97.66-0.44Q96.63-0.17 95.61 0.06 94.58 0.29 93.55 0.46L93.55 0.46Q93.07-1.12 92.86-2.44 92.65-3.76 92.65-5.03L92.65-5.03 92.65-35.11 96.85-35.11ZM107.18-25.39L107.18-31.2 111.38-31.2 111.38-25.39 119.92-25.39 119.92-21.85 111.38-21.85 111.38-7.28Q111.38-5.81 111.46-5.04 111.55-4.27 111.89-3.83L111.89-3.83Q112.52-2.95 114.45-2.95L114.45-2.95Q115.53-2.95 116.53-3.17L116.53-3.17Q117.55-3.39 118.41-3.66L118.41-3.66Q119.09-2.17 119.65-0.39L119.65-0.39Q116.77 0.59 113.84 0.59L113.84 0.59Q111.72 0.59 110.44 0.11 109.16-0.37 108.42-1.44L108.42-1.44Q107.67-2.56 107.42-4.13 107.18-5.69 107.18-8.45L107.18-8.45 107.18-21.85 103.52-21.85 103.52-25.39 107.18-25.39ZM126.12 0L126.12-35.16 130.32-35.16 130.32-19.85Q131.96-22.63 134.03-24.19L134.03-24.19Q136.4-25.95 138.75-25.95L138.75-25.95Q142.26-25.95 144.21-24.19L144.21-24.19Q145.9-22.68 146.53-19.63L146.53-19.63Q147.02-17.31 147.02-13.38L147.02-13.38 147.02 0 142.82 0 142.82-14.55Q142.82-16.04 142.75-17 142.68-17.97 142.4-19.03 142.11-20.09 141.59-20.69 141.06-21.29 140.12-21.68 139.18-22.07 137.84-22.07L137.84-22.07Q135.52-22.07 133.37-19.87L133.37-19.87Q132.01-18.48 130.32-15.63L130.32-15.63 130.32 0 126.12 0ZM170.61-25.39L174.8-25.39 174.8 0.56Q174.8 2.98 174.01 4.74 173.22 6.49 171.81 7.64 170.41 8.79 168.48 9.34 166.55 9.89 164.28 9.89L164.28 9.89Q162.23 9.89 160.16 9.53 158.08 9.18 156.2 8.54L156.2 8.54Q156.52 7.69 156.86 6.88 157.2 6.08 157.54 5.27L157.54 5.27Q158.13 5.47 158.95 5.69 159.77 5.91 160.68 6.09 161.6 6.27 162.56 6.38 163.53 6.49 164.43 6.49L164.43 6.49Q165.84 6.49 166.99 6.12 168.14 5.74 168.95 4.98 169.75 4.22 170.18 3.11 170.61 2 170.61 0.56L170.61 0.56 170.61-4.96 170.14-4.96Q169.51-3.81 168.68-2.8 167.85-1.78 166.85-1.03 165.84-0.27 164.69 0.16 163.53 0.59 162.23 0.59L162.23 0.59Q160.45 0.59 159.13 0.18 157.81-0.22 156.87-1.01 155.93-1.81 155.33-2.99 154.74-4.17 154.42-5.74L154.42-5.74Q154.15-7.13 154.08-8.72 154-10.3 154-11.99L154-11.99 154-25.39 158.2-25.39 158.2-10.82Q158.2-9.23 158.35-7.85 158.5-6.47 159-5.46 159.5-4.44 160.47-3.87 161.45-3.3 163.13-3.3L163.13-3.3Q164.38-3.3 165.48-3.89 166.58-4.49 167.5-5.42 168.43-6.35 169.2-7.47 169.97-8.59 170.61-9.67L170.61-9.67 170.61-25.39ZM198.02 0L198.02-35.11 202.61-35.11 202.61-3.76 216.99-3.76 216.99 0 198.02 0ZM225.27-35.23L225.27-35.23Q226.39-35.23 227.22-34.45L227.22-34.45Q228.03-33.59 228.03-32.45L228.03-32.45Q228.03-31.27 227.22-30.47L227.22-30.47Q226.39-29.64 225.27-29.64L225.27-29.64Q224.1-29.64 223.27-30.47L223.27-30.47Q222.44-31.25 222.44-32.45L222.44-32.45Q222.44-33.62 223.27-34.45L223.27-34.45Q224.1-35.23 225.27-35.23ZM223.12 0L223.12-25.39 227.32-25.39 227.32 0 223.12 0ZM251.15-25.39L255.69-25.39 247.24 0 241.63 0 233.18-25.39 237.72-25.39 244.43-3.22 251.15-25.39ZM263.48-35.23L263.48-35.23Q264.6-35.23 265.43-34.45L265.43-34.45Q266.24-33.59 266.24-32.45L266.24-32.45Q266.24-31.27 265.43-30.47L265.43-30.47Q264.6-29.64 263.48-29.64L263.48-29.64Q262.3-29.64 261.47-30.47L261.47-30.47Q260.64-31.25 260.64-32.45L260.64-32.45Q260.64-33.62 261.47-34.45L261.47-34.45Q262.3-35.23 263.48-35.23ZM261.33 0L261.33-25.39 265.53-25.39 265.53 0 261.33 0ZM273.46-24.95L273.46-24.95 277.51-25.85Q277.98-24.39 278.17-23.02L278.17-23.02Q278.27-22.36 278.42-20.41L278.42-20.41 278.93-20.41Q280.27-22.88 282.25-24.34L282.25-24.34Q284.42-25.95 286.84-25.95L286.84-25.95Q290.48-25.95 292.38-24.19L292.38-24.19Q294.02-22.71 294.65-19.63L294.65-19.63Q295.07-17.53 295.07-13.38L295.07-13.38 295.07 0 290.87 0 290.87-14.55Q290.87-18.19 290.16-19.75L290.16-19.75Q289.11-22.07 285.94-22.07L285.94-22.07Q283.69-22.07 281.54-19.92L281.54-19.92Q280.1-18.48 278.47-15.7L278.47-15.7 278.47 0 274.27 0 274.27-15.63Q274.27-18.92 274.1-21.31L274.1-21.31Q274-22.8 273.46-24.95ZM314.53-25.39L316.77-25.39Q317.82-25.39 318.62-25.42 319.41-25.44 320.14-25.52 320.87-25.61 321.62-25.78 322.36-25.95 323.36-26.27L323.36-26.27Q323.68-25.34 323.99-24.51 324.29-23.68 324.61-22.8L324.61-22.8Q323.83-22.51 323.17-22.34 322.51-22.17 321.86-22.06 321.22-21.95 320.57-21.91 319.92-21.88 319.19-21.85L319.19-21.85Q319.87-20.75 320.24-19.38 320.61-18.02 320.61-16.41L320.61-16.41Q320.61-14.06 319.9-12.32 319.19-10.57 317.87-9.35L317.87-9.35Q316.55-8.13 314.71-7.51 312.87-6.88 310.57-6.88L310.57-6.88Q309.4-6.88 308.35-7.02 307.3-7.15 306.35-7.5L306.35-7.5Q306.13-6.91 305.97-6.3 305.81-5.69 305.82-5.14 305.83-4.59 306.03-4.14 306.23-3.69 306.71-3.42L306.71-3.42Q306.96-3.27 307.23-3.19 307.5-3.1 307.87-3.04 308.25-2.98 308.79-2.94 309.33-2.91 310.08-2.91L310.08-2.91Q310.82-2.88 311.8-2.88 312.79-2.88 314.11-2.88L314.11-2.88Q317.92-2.88 319.87-1.28 321.83 0.32 321.83 3.69L321.83 3.69Q321.83 5.05 321.39 6.12 320.95 7.18 320.18 7.96 319.41 8.74 318.36 9.27 317.31 9.79 316.09 10.12 314.87 10.45 313.54 10.58 312.21 10.72 310.86 10.72L310.86 10.72Q309.52 10.72 308.17 10.57 306.81 10.42 305.52 10.21L305.52 10.21Q304.22 9.99 303.09 9.7 301.95 9.42 301.07 9.16L301.07 9.16Q301.42 8.33 301.84 7.5 302.27 6.67 302.76 5.93L302.76 5.93Q304.3 6.37 306.42 6.79 308.54 7.2 311.13 7.2L311.13 7.2Q312.3 7.2 313.44 7.06 314.58 6.91 315.49 6.51 316.41 6.1 316.97 5.43 317.53 4.76 317.53 3.69L317.53 3.69Q317.53 2.56 317.13 1.95 316.72 1.34 316.04 1.05 315.36 0.76 314.43 0.71 313.5 0.66 312.48 0.66L312.48 0.66 309.28 0.66Q307.84 0.66 306.57 0.44 305.3 0.22 304.35-0.31 303.39-0.83 302.84-1.68 302.29-2.54 302.29-3.78L302.29-3.78Q302.29-4.98 302.73-6.26 303.17-7.54 303.88-8.86L303.88-8.86Q302.27-10.03 301.4-11.96 300.54-13.89 300.54-16.41L300.54-16.41Q300.54-18.7 301.26-20.47 301.98-22.24 303.3-23.49L303.3-23.49Q304.61-24.73 306.45-25.34 308.28-25.95 310.57-25.95L310.57-25.95Q312.72-25.95 314.53-25.39L314.53-25.39ZM310.57-22.58L310.57-22.58Q309.03-22.58 307.93-22.12 306.84-21.66 306.14-20.84 305.44-20.02 305.11-18.88 304.79-17.75 304.79-16.41L304.79-16.41Q304.79-15.04 305.11-13.92 305.44-12.79 306.15-11.98 306.86-11.16 307.95-10.71 309.03-10.25 310.57-10.25L310.57-10.25Q312.11-10.25 313.21-10.71 314.31-11.16 315-11.98 315.7-12.79 316.03-13.93 316.36-15.06 316.36-16.41L316.36-16.41Q316.36-17.75 316.03-18.88 315.7-20.02 315-20.84 314.31-21.66 313.21-22.12 312.11-22.58 310.57-22.58ZM331.71 0L330.47-4.32Q331.4-4.98 332.07-5.22 332.74-5.47 333.42-5.47L333.42-5.47Q334.62-5.47 335.35-4.99 336.08-4.52 336.41-3.77 336.74-3.03 336.69-2.08 336.65-1.12 336.25-0.17L336.25-0.17Q335.99 0.46 335.55 1.32 335.11 2.17 334.62 3.09 334.13 4 333.63 4.88 333.13 5.76 332.76 6.4L332.76 6.4 329.79 6.4 331.71 0ZM361.18-35.11L372.17-35.11Q374.58-35.11 376.68-34.58 378.78-34.06 380.33-32.87 381.88-31.69 382.78-29.79 383.67-27.88 383.67-25.15L383.67-25.15Q383.67-22.09 382.64-20.17 381.62-18.24 379.87-17.11 378.13-15.99 375.82-15.58 373.51-15.16 370.95-15.16L370.95-15.16Q369.56-15.16 368.23-15.26 366.89-15.36 365.72-15.48L365.72-15.48 365.72 0 361.18 0 361.18-35.11ZM365.72-31.45L365.72-19.14Q366.89-18.99 368.18-18.91 369.46-18.82 370.75-18.82L370.75-18.82Q372.61-18.82 374.16-19.06 375.71-19.29 376.81-19.97 377.91-20.65 378.52-21.9 379.13-23.14 379.13-25.15L379.13-25.15Q379.13-26.98 378.61-28.19 378.1-29.39 377.19-30.13 376.27-30.86 374.99-31.15 373.71-31.45 372.17-31.45L372.17-31.45 365.72-31.45ZM394.87-19.51L395.09-19.51Q395.85-21.02 396.72-22.24 397.58-23.46 398.63-24.32L398.63-24.32Q399.58-25.15 400.73-25.55 401.88-25.95 403.34-25.95L403.34-25.95Q403.83-25.95 404.48-25.9 405.13-25.85 405.71-25.73L405.71-25.73Q405.62-24.51 405.48-23.44 405.35-22.36 405.13-21.26L405.13-21.26Q403.91-21.48 402.89-21.58 401.88-21.68 400.98-21.53L400.98-21.53Q399.9-21.34 399.11-20.81 398.32-20.29 397.64-19.42 396.97-18.55 396.34-17.35 395.7-16.14 394.95-14.58L394.95-14.58 394.95 0 390.75 0 390.75-15.65Q390.75-17.19 390.71-18.36 390.67-19.53 390.56-20.59 390.45-21.66 390.23-22.69 390.01-23.73 389.65-25L389.65-25Q390.67-25.27 391.66-25.49 392.65-25.71 393.68-25.9L393.68-25.9Q394.02-24.93 394.23-24.17 394.43-23.41 394.56-22.69 394.68-21.97 394.74-21.23 394.8-20.48 394.87-19.51L394.87-19.51ZM420.31-25.95L420.31-25.95Q421.51-25.95 422.8-25.77 424.1-25.59 425.34-25.07L425.34-25.07Q426.59-24.54 427.7-23.62 428.81-22.71 429.66-21.24L429.66-21.24Q430.52-19.75 431.01-17.66 431.49-15.58 431.49-12.7L431.49-12.7Q431.49-9.81 431.01-7.73 430.52-5.64 429.66-4.17L429.66-4.17Q428.81-2.69 427.7-1.76 426.59-0.83 425.34-0.32L425.34-0.32Q424.1 0.22 422.8 0.4 421.51 0.59 420.31 0.59L420.31 0.59Q419.14 0.59 417.86 0.4 416.58 0.22 415.33-0.32L415.33-0.32Q414.09-0.83 412.99-1.76 411.89-2.69 411.04-4.17L411.04-4.17Q410.18-5.64 409.69-7.73 409.2-9.81 409.2-12.7L409.2-12.7Q409.2-15.58 409.69-17.66 410.18-19.75 411.04-21.24L411.04-21.24Q411.89-22.71 412.99-23.62 414.09-24.54 415.33-25.07L415.33-25.07Q416.58-25.59 417.85-25.77 419.12-25.95 420.31-25.95ZM420.31-22.51L420.31-22.51Q418.92-22.51 417.69-22.07 416.46-21.63 415.53-20.53L415.53-20.53Q414.58-19.41 414.01-17.53 413.45-15.65 413.45-12.7L413.45-12.7Q413.45-9.77 414.01-7.87 414.58-5.98 415.53-4.88L415.53-4.88Q416.46-3.76 417.69-3.33 418.92-2.91 420.31-2.91L420.31-2.91Q421.73-2.91 422.99-3.33 424.24-3.76 425.2-4.88L425.2-4.88Q426.15-5.98 426.7-7.87 427.25-9.77 427.25-12.7L427.25-12.7Q427.25-15.65 426.7-17.53 426.15-19.41 425.2-20.53L425.2-20.53Q424.24-21.63 422.99-22.07 421.73-22.51 420.31-22.51ZM445.58-25.95L445.58-25.95Q447.58-25.95 449.6-25.54 451.61-25.12 453.34-24.39L453.34-24.39Q453-23.61 452.64-22.85 452.27-22.09 451.83-21.36L451.83-21.36Q451.22-21.61 450.48-21.85 449.73-22.09 448.91-22.27 448.1-22.44 447.23-22.55 446.36-22.66 445.53-22.66L445.53-22.66Q444.63-22.66 443.79-22.47 442.94-22.29 442.3-21.88 441.65-21.46 441.26-20.79 440.87-20.12 440.87-19.12L440.87-19.12Q440.87-18.09 441.31-17.4 441.75-16.7 442.5-16.24 443.26-15.77 444.27-15.45 445.29-15.14 446.44-14.87L446.44-14.87Q448.22-14.43 449.76-13.88 451.29-13.33 452.42-12.45 453.54-11.57 454.17-10.28 454.81-8.98 454.81-7.08L454.81-7.08Q454.81-5.08 454.02-3.64 453.22-2.2 451.87-1.26 450.51-0.32 448.71 0.13 446.9 0.59 444.85 0.59L444.85 0.59Q443.77 0.59 442.64 0.45 441.5 0.32 440.39 0.06 439.28-0.2 438.21-0.56 437.13-0.93 436.18-1.37L436.18-1.37Q436.52-2.15 436.9-2.89 437.28-3.64 437.7-4.37L437.7-4.37Q438.5-4.03 439.4-3.72 440.31-3.42 441.26-3.2 442.21-2.98 443.14-2.84 444.07-2.71 444.92-2.71L444.92-2.71Q446-2.71 447.01-2.95 448.02-3.2 448.82-3.72 449.61-4.25 450.09-5.08 450.56-5.91 450.56-7.08L450.56-7.08Q450.56-8.18 450.11-8.89 449.66-9.59 448.9-10.07 448.14-10.55 447.13-10.85 446.12-11.16 445-11.43L445-11.43Q443.29-11.84 441.76-12.38 440.23-12.92 439.1-13.78 437.96-14.65 437.29-15.93 436.62-17.21 436.62-19.12L436.62-19.12Q436.62-20.9 437.35-22.19 438.09-23.49 439.32-24.32 440.55-25.15 442.18-25.55 443.8-25.95 445.58-25.95ZM465.5-0.02L465.5 9.77 461.3 9.77 461.3-15.82Q461.3-20.07 461.18-21.41L461.18-21.41Q461.06-23.07 460.62-24.98L460.62-24.98 464.67-25.88Q465.09-24.51 465.28-23.12L465.28-23.12Q465.53-21.41 465.55-20.48L465.55-20.48 465.92-20.48Q467.19-23.12 468.73-24.37L468.73-24.37Q470.58-25.95 473.32-25.95L473.32-25.95Q475.71-25.95 477.44-24.91 479.17-23.88 480.14-22.02 481.1-20.17 481.56-17.94 482.01-15.72 482.01-13.04L482.01-13.04Q482.01-10.01 481.38-7.59 480.76-5.18 479.47-3.31 478.17-1.44 476-0.43 473.83 0.59 470.9 0.59L470.9 0.59Q468.6 0.59 465.5-0.02L465.5-0.02ZM465.5-15.09L465.5-15.09 465.5-3.74Q468.26-3 470.58-3L470.58-3Q472.56-3 473.99-3.72 475.42-4.44 476.22-5.75 477.03-7.06 477.39-8.67 477.76-10.28 477.76-12.28L477.76-12.28Q477.76-13.65 477.7-14.69 477.64-15.72 477.48-16.93 477.32-18.14 476.98-18.99 476.64-19.85 476.12-20.58 475.61-21.31 474.79-21.69 473.97-22.07 472.9-22.07L472.9-22.07Q470.31-22.07 468.41-20L468.41-20Q467.04-18.48 465.5-15.09ZM506.32-4.71L507.54-1.42Q504.83-0.34 502.45 0.12 500.07 0.59 498.19 0.59L498.19 0.59Q495.31 0.59 493.16-0.33 491.02-1.25 489.59-2.91 488.16-4.57 487.44-6.87 486.72-9.18 486.72-11.96L486.72-11.96Q486.72-13.67 486.96-15.38 487.21-17.09 487.74-18.64 488.28-20.19 489.15-21.53 490.01-22.88 491.26-23.85 492.5-24.83 494.17-25.39 495.83-25.95 497.95-25.95L497.95-25.95Q503.39-25.95 506.15-22.55 508.91-19.14 508.91-12.79L508.91-12.79 508.91-11.45 491.04-11.45Q491.04-9.4 491.48-7.82 491.92-6.25 492.83-5.16 493.75-4.08 495.15-3.52 496.56-2.95 498.49-2.95L498.49-2.95Q499.56-2.95 500.62-3.11 501.68-3.27 502.69-3.53 503.69-3.78 504.6-4.1 505.52-4.42 506.32-4.71L506.32-4.71ZM491.16-14.82L504.69-14.82Q504.49-18.77 502.8-20.59 501.1-22.41 497.95-22.41L497.95-22.41Q494.8-22.41 493.15-20.59 491.5-18.77 491.16-14.82L491.16-14.82ZM519.8-19.51L520.02-19.51Q520.78-21.02 521.64-22.24 522.51-23.46 523.56-24.32L523.56-24.32Q524.51-25.15 525.66-25.55 526.81-25.95 528.27-25.95L528.27-25.95Q528.76-25.95 529.41-25.9 530.05-25.85 530.64-25.73L530.64-25.73Q530.54-24.51 530.41-23.44 530.27-22.36 530.05-21.26L530.05-21.26Q528.83-21.48 527.82-21.58 526.81-21.68 525.9-21.53L525.9-21.53Q524.83-21.34 524.04-20.81 523.24-20.29 522.57-19.42 521.9-18.55 521.26-17.35 520.63-16.14 519.87-14.58L519.87-14.58 519.87 0 515.67 0 515.67-15.65Q515.67-17.19 515.64-18.36 515.6-19.53 515.49-20.59 515.38-21.66 515.16-22.69 514.94-23.73 514.58-25L514.58-25Q515.6-25.27 516.59-25.49 517.58-25.71 518.6-25.9L518.6-25.9Q518.95-24.93 519.15-24.17 519.36-23.41 519.48-22.69 519.6-21.97 519.67-21.23 519.73-20.48 519.8-19.51L519.8-19.51ZM545.24-25.95L545.24-25.95Q546.44-25.95 547.73-25.77 549.02-25.59 550.27-25.07L550.27-25.07Q551.51-24.54 552.62-23.62 553.74-22.71 554.59-21.24L554.59-21.24Q555.44-19.75 555.93-17.66 556.42-15.58 556.42-12.7L556.42-12.7Q556.42-9.81 555.93-7.73 555.44-5.64 554.59-4.17L554.59-4.17Q553.74-2.69 552.62-1.76 551.51-0.83 550.27-0.32L550.27-0.32Q549.02 0.22 547.73 0.4 546.44 0.59 545.24 0.59L545.24 0.59Q544.07 0.59 542.79 0.4 541.5 0.22 540.26-0.32L540.26-0.32Q539.01-0.83 537.92-1.76 536.82-2.69 535.96-4.17L535.96-4.17Q535.11-5.64 534.62-7.73 534.13-9.81 534.13-12.7L534.13-12.7Q534.13-15.58 534.62-17.66 535.11-19.75 535.96-21.24L535.96-21.24Q536.82-22.71 537.92-23.62 539.01-24.54 540.26-25.07L540.26-25.07Q541.5-25.59 542.77-25.77 544.04-25.95 545.24-25.95ZM545.24-22.51L545.24-22.51Q543.85-22.51 542.61-22.07 541.38-21.63 540.45-20.53L540.45-20.53Q539.5-19.41 538.94-17.53 538.38-15.65 538.38-12.7L538.38-12.7Q538.38-9.77 538.94-7.87 539.5-5.98 540.45-4.88L540.45-4.88Q541.38-3.76 542.61-3.33 543.85-2.91 545.24-2.91L545.24-2.91Q546.66-2.91 547.91-3.33 549.17-3.76 550.12-4.88L550.12-4.88Q551.07-5.98 551.62-7.87 552.17-9.77 552.17-12.7L552.17-12.7Q552.17-15.65 551.62-17.53 551.07-19.41 550.12-20.53L550.12-20.53Q549.17-21.63 547.91-22.07 546.66-22.51 545.24-22.51ZM583.96-0.44L583.96-0.44 579.91 0.46Q579.44-1 579.25-2.37L579.25-2.37Q579.15-3 579-4.96L579-4.96 578.49-4.96Q577.15-2.49 575.17-1.03L575.17-1.03Q573 0.59 570.58 0.59L570.58 0.59Q566.94 0.59 565.04-1.17L565.04-1.17Q563.4-2.66 562.77-5.74L562.77-5.74Q562.35-7.84 562.35-11.99L562.35-11.99 562.35-25.39 566.55-25.39 566.55-10.82Q566.55-7.18 567.26-5.62L567.26-5.62Q568.31-3.3 571.48-3.3L571.48-3.3Q573.73-3.3 575.88-5.44L575.88-5.44Q577.32-6.88 578.96-9.67L578.96-9.67 578.96-25.39 583.15-25.39 583.15-9.72Q583.15-6.47 583.33-4.08L583.33-4.08Q583.42-2.59 583.96-0.44ZM598.78-25.95L598.78-25.95Q600.78-25.95 602.8-25.54 604.81-25.12 606.54-24.39L606.54-24.39Q606.2-23.61 605.83-22.85 605.47-22.09 605.03-21.36L605.03-21.36Q604.42-21.61 603.67-21.85 602.93-22.09 602.11-22.27 601.29-22.44 600.43-22.55 599.56-22.66 598.73-22.66L598.73-22.66Q597.83-22.66 596.98-22.47 596.14-22.29 595.5-21.88 594.85-21.46 594.46-20.79 594.07-20.12 594.07-19.12L594.07-19.12Q594.07-18.09 594.51-17.4 594.95-16.7 595.7-16.24 596.46-15.77 597.47-15.45 598.49-15.14 599.63-14.87L599.63-14.87Q601.42-14.43 602.95-13.88 604.49-13.33 605.62-12.45 606.74-11.57 607.37-10.28 608.01-8.98 608.01-7.08L608.01-7.08Q608.01-5.08 607.21-3.64 606.42-2.2 605.07-1.26 603.71-0.32 601.9 0.13 600.1 0.59 598.05 0.59L598.05 0.59Q596.97 0.59 595.84 0.45 594.7 0.32 593.59 0.06 592.48-0.2 591.41-0.56 590.33-0.93 589.38-1.37L589.38-1.37Q589.72-2.15 590.1-2.89 590.48-3.64 590.89-4.37L590.89-4.37Q591.7-4.03 592.6-3.72 593.51-3.42 594.46-3.2 595.41-2.98 596.34-2.84 597.27-2.71 598.12-2.71L598.12-2.71Q599.19-2.71 600.21-2.95 601.22-3.2 602.01-3.72 602.81-4.25 603.28-5.08 603.76-5.91 603.76-7.08L603.76-7.08Q603.76-8.18 603.31-8.89 602.86-9.59 602.1-10.07 601.34-10.55 600.33-10.85 599.32-11.16 598.19-11.43L598.19-11.43Q596.48-11.84 594.96-12.38 593.43-12.92 592.3-13.78 591.16-14.65 590.49-15.93 589.82-17.21 589.82-19.12L589.82-19.12Q589.82-20.9 590.55-22.19 591.28-23.49 592.52-24.32 593.75-25.15 595.37-25.55 597-25.95 598.78-25.95ZM629.37 0L629.37-35.11 633.96-35.11 633.96-3.76 648.34-3.76 648.34 0 629.37 0ZM656.62-35.23L656.62-35.23Q657.74-35.23 658.57-34.45L658.57-34.45Q659.38-33.59 659.38-32.45L659.38-32.45Q659.38-31.27 658.57-30.47L658.57-30.47Q657.74-29.64 656.62-29.64L656.62-29.64Q655.44-29.64 654.61-30.47L654.61-30.47Q653.78-31.25 653.78-32.45L653.78-32.45Q653.78-33.62 654.61-34.45L654.61-34.45Q655.44-35.23 656.62-35.23ZM654.47 0L654.47-25.39 658.67-25.39 658.67 0 654.47 0ZM665.82-25.39L670.07-25.39 670.07-28.15Q670.07-29.96 670.41-31.27 670.75-32.59 671.61-33.72 672.46-34.84 674.11-35.41 675.76-35.99 678.17-35.99L678.17-35.99Q681.32-35.99 685.67-34.94L685.67-34.94 684.91-31.49Q680.81-32.35 678.66-32.35L678.66-32.35Q677.61-32.35 676.89-32.24 676.17-32.13 675.68-31.8 675.2-31.47 674.93-31.1 674.66-30.74 674.52-30 674.39-29.27 674.35-28.61 674.32-27.95 674.32-26.78L674.32-26.78 674.32-25.39 682.47-25.39 682.47-21.85 674.32-21.85 674.32-3.54 682.47-3.54 682.47 0 665.82 0 665.82-3.54 670.07-3.54 670.07-21.85 665.82-21.85 665.82-25.39ZM707.54-4.71L708.76-1.42Q706.05-0.34 703.67 0.12 701.29 0.59 699.41 0.59L699.41 0.59Q696.53 0.59 694.38-0.33 692.24-1.25 690.81-2.91 689.38-4.57 688.66-6.87 687.94-9.18 687.94-11.96L687.94-11.96Q687.94-13.67 688.18-15.38 688.43-17.09 688.96-18.64 689.5-20.19 690.37-21.53 691.24-22.88 692.48-23.85 693.73-24.83 695.39-25.39 697.05-25.95 699.17-25.95L699.17-25.95Q704.61-25.95 707.37-22.55 710.13-19.14 710.13-12.79L710.13-12.79 710.13-11.45 692.26-11.45Q692.26-9.4 692.7-7.82 693.14-6.25 694.06-5.16 694.97-4.08 696.37-3.52 697.78-2.95 699.71-2.95L699.71-2.95Q700.78-2.95 701.84-3.11 702.91-3.27 703.91-3.53 704.91-3.78 705.82-4.1 706.74-4.42 707.54-4.71L707.54-4.71ZM692.38-14.82L705.91-14.82Q705.71-18.77 704.02-20.59 702.32-22.41 699.17-22.41L699.17-22.41Q696.02-22.41 694.37-20.59 692.72-18.77 692.38-14.82L692.38-14.82Z" opacity="1" transform="matrix(1,0,0,1,0,0)" fill="#ffffff" class="slogan-text-1" data-fill-palette-color="secondary" id="text-1"></path></svg></g></svg></g></svg></g></svg></g><g transform="matrix(1,0,0,1,49.733407150440605,0)"><svg viewBox="0 0 124.53318569911879 124.53318569911879" height="124.53318569911879" width="124.53318569911879"><g><svg></svg></g><g id="icon-0"><svg viewBox="0 0 124.53318569911879 124.53318569911879" height="124.53318569911879" width="124.53318569911879"><g><path d="M0 62.267c0-34.389 27.878-62.267 62.267-62.267 34.389 0 62.267 27.878 62.266 62.267 0 34.389-27.878 62.267-62.266 62.266-34.389 0-62.267-27.878-62.267-62.266zM62.267 119.223c31.456 0 56.957-25.5 56.956-56.956 0-31.456-25.5-56.957-56.956-56.957-31.456 0-56.957 25.5-56.957 56.957 0 31.456 25.5 56.957 56.957 56.956z" data-fill-palette-color="accent" fill="#ffffff" stroke="transparent"></path></g><g transform="matrix(1,0,0,1,30.1008428759976,38.856175202331926)"><svg viewBox="0 0 64.33149994712359 46.820835294454945" height="46.820835294454945" width="64.33149994712359"><g><svg xmlns="http://www.w3.org/2000/svg" xmlns:xlink="http://www.w3.org/1999/xlink" version="1.1" x="0" y="0" viewBox="5.488888888888889 14.881309421171885 90.02222222222221 65.51869057882811" style="enable-background:new 0 0 100 100;" xml:space="preserve" height="46.820835294454945" width="64.33149994712359" class="icon-dxe-0" data-fill-palette-color="accent" id="dxe-0"><path d="M24.1 47.1C24.1 50.5 24.7 53.8 25.8 56.8 24.7 56.6 23.6 56.3 22.4 55.9 18.5 54.5 14.1 51.8 10.7 46.5 7.1 44.1 5.7 42.5 5.6 42.4L5.5 42.3V42.1C5.5 42 5.4 39.4 5.8 37.6 6.4 35 7.3 32.8 8.5 31.1 10 29 12 27.1 13.2 26.3 13.7 25.9 14.5 25.4 15.3 24.8 16.2 24.1 17.3 23.4 18.2 22.7 19.9 21.5 21.1 19.9 21.5 19.3 21.9 18.8 22.2 18 22.6 17.2V17.1C23 16.3 23.3 15.5 24.5 15.1 25.7 14.6 26.8 15.1 27 15.2 27 15.2 35.9 18.3 36 18.4 36.4 18.6 36.5 19 36.6 19.3 36.8 19.8 36.4 20.3 36.4 20.4L35 24.4C35 24.5 34.8 25.1 34.3 25.3S33.3 25.3 33.3 25.3C33.8 23.9 34.4 22.2 35 20.7 35 20.7 35.2 20.2 35 19.8 34.9 19.5 34.6 20.5 34.6 20.5 34.2 21.6 33 25 32.6 25.9 32 26.4 31.1 26.1 31.1 26.1 31.6 24.7 32.2 23.1 32.7 21.7 32.7 21.7 32.9 21.1 32.7 20.6 32.6 20.3 32.3 21.5 32.3 21.5 31.9 22.5 30.8 25.7 30.5 26.6 30.1 27.2 29.2 27 29.2 26.9L25.9 25.7C25.8 25.7 25.3 25.5 25.2 24.9S25.7 22.5 25.9 22.2C26.2 22.3 29 23.4 29 23.4L28.9 23.9C28.9 24 29 24.3 29.2 24.3 29.3 24.3 29.6 24.4 29.6 24.3L30.2 22.6C30.2 22.5 30 22.3 29.9 22.3S29.5 22.3 29.5 22.4L29.3 23C28.9 22.9 28.6 22.7 28.2 22.6 26.8 22.1 25.9 21.6 25.7 21.6 25.6 21.8 24.9 23.6 24.8 24.6 24.8 24.6 24.5 25.3 24.5 25.5 24.3 26.2 24 27.5 23.8 28.7 23.6 29.6 23.4 30.5 23.2 31.2 22.9 32.3 22.3 33.9 21.7 35.1 21 35.4 20 35.9 19.2 36.7 19.1 36.8 19.1 37 19.1 37.1 19.2 37.2 19.4 37.2 19.5 37.2 20.6 36.1 22.6 35.4 22.7 35.4 23.9 35.1 25.4 35.1 26.9 35.7 27.9 36.1 28.7 36.5 29.3 37.1 26 39.4 24.1 43.1 24.1 47.1" fill="#ffffff" data-fill-palette-color="accent"></path><path d="M68.6 38C65.2 36.1 61 36.4 57.1 38.9 53.6 41.1 50.8 44.5 50.7 44.5L49.9 45.5 49.1 44.5S46.3 41.1 42.8 38.9C40.6 37.5 38.3 36.8 36.1 36.8 34.4 36.8 32.8 37.2 31.3 38 28 39.8 26.1 43.2 26.1 47.1 26.1 65.8 46.4 78.4 49.8 80.4 53.3 78.3 73.6 65.2 73.6 47.1 73.8 43.2 71.9 39.8 68.6 38M63.3 61.4C63.2 61.4 60.3 61.4 59.8 61.3 59.3 61.3 59 61 58.8 60.8 58.7 60.7 58.6 60.7 58.6 60.6 58.5 60.5 58.4 60.6 58.4 60.6 58.3 60.7 57.9 65.3 57.1 65.6L56.9 65.7 56.6 65.5C56.1 65.2 55.9 64 55.6 56.6 55.5 55.3 55.5 54 55.4 53 55.1 54.4 54.7 56.6 54.5 57.9 54 60.9 54 61 53.6 61.1 53.4 61.2 52.9 61.2 51.7 61.1H50.6C50.2 62 49.3 66.1 49 67.5 48.9 68.2 48.8 68.7 48.7 68.8L48.6 69.2 48.2 69.1C47.7 69 47.7 69 47 58.3 46.9 56.7 46.8 55.1 46.7 53.6 46.4 57 46.1 61 46.1 61.8 46.1 62.1 46.1 62.8 45.5 62.8 45.3 62.8 44.8 62.8 44.6 61.3H42.4C41.7 61.3 41.2 60.3 40.8 59.8 40.6 59.6 40.3 58.9 40.2 58.9 39.8 58.9 39 59.8 38.4 60.6L38.1 61H36.5C36.2 61 36 60.8 36 60.5S36.2 60 36.5 60H37.6C38.1 60 39.1 58.5 40 58.5 40.7 58.5 41.1 59.1 41.5 59.6 41.8 59.9 42 60.3 42.3 60.3H44.6C44.7 60.3 44.9 60.3 45.1 60.4 45.2 59 45.4 56.7 45.5 54.5 46 47.7 46.1 47.7 46.6 47.6L47 47.5 47.1 47.9C47.2 48.3 47.4 51.3 47.9 58.2 48.1 60.6 48.2 63.1 48.4 65.1 49.4 60.4 49.7 60.1 50.2 60.1H53C53.1 59.6 53.3 58.6 53.4 57.7 54.2 52.4 54.6 51 55.3 50.7 55.5 50.6 55.8 50.6 56 50.8 56.3 51 56.4 51.3 56.6 56.5 56.7 58.5 56.8 61.2 57 62.9 57.2 61.9 57.3 60.8 57.4 60.5 57.4 60.1 57.6 59.8 58 59.6S58.8 59.4 59.2 59.6C59.4 59.7 59.5 59.8 59.6 59.9 59.8 60 59.9 60.1 60.1 60.2 60.5 60.2 62.5 60.3 63.5 60.3 63.8 60.3 64 60.5 64 60.8 63.8 61.2 63.5 61.4 63.3 61.4" fill="#ffffff" data-fill-palette-color="accent"></path><path d="M95.5 42.2V42.4L95.4 42.5C95.3 42.6 94 44.2 90.3 46.6 86.9 51.9 82.5 54.6 78.6 56 77 56.6 75.4 56.9 74.1 57.1 75.2 54 75.9 50.7 75.9 47.2 75.9 43.4 74.3 39.9 71.5 37.6 72.2 36.9 73.1 36.2 74.4 35.7 75.9 35.1 77.3 35.1 78.6 35.4 79.1 35.5 80.6 36.1 81.7 37.2 81.8 37.3 81.9 37.3 81.9 37.3S82 37.3 82 37.2C82.1 37.1 82.1 37 82 36.9 81.2 36.1 80.2 35.6 79.5 35.3 78.9 34.1 78.3 32.5 78 31.4 77.8 30.7 77.6 29.8 77.4 28.9 77.1 27.7 76.9 26.4 76.7 25.7 76.6 25.5 76.4 24.8 76.4 24.8 76.3 23.8 75.6 22 75.5 21.8 75.3 21.9 74.4 22.4 73 22.8 72.6 22.9 72.3 23 71.9 23.2L71.7 22.6C71.7 22.5 71.4 22.5 71.3 22.5S71 22.7 71 22.8L71.6 24.5C71.6 24.6 71.9 24.6 72 24.6S72.3 24.4 72.3 24.2L72 23.6S74.6 22.8 75.2 22.4C75.3 22.7 75.9 24.6 75.8 25.1S75.2 25.8 75.1 25.9L71.8 27.1C71.7 27.1 70.9 27.3 70.5 26.8 70.2 25.9 69.1 22.8 68.7 21.7 68.7 21.7 68.4 20.5 68.3 20.8 68.1 21.3 68.3 21.8 68.3 21.9 68.8 23.2 69.4 24.8 69.9 26.3 69.9 26.3 69.1 26.7 68.4 26.1 68.1 25.1 66.8 21.8 66.4 20.7 66.4 20.7 66.1 19.7 66 20 65.8 20.5 66 20.9 66 20.9 66.5 22.4 67.2 24.1 67.7 25.5 67.7 25.5 66.5 25.8 66 24.6L64.6 20.6C64 19 65.3 18.4 65.3 18.4L73.9 15.4C74.1 15.3 75.2 14.8 76.4 15.3S77.9 16.5 78.3 17.3V17.4C78.7 18.2 79 19 79.4 19.5S81 21.7 82.7 22.9L85.7 25C86.5 25.6 87.3 26.1 87.8 26.5 89 27.3 91 29.3 92.5 31.3 93.7 33 94.6 35.1 95.2 37.8 95.6 39.5 95.5 42 95.5 42.2" fill="#ffffff" data-fill-palette-color="accent"></path></svg></g></svg></g></svg></g></svg></g><g></g></svg></g></svg></g></svg></g><defs></defs></svg><rect width="320" height="360" fill="none" stroke="none" visibility="hidden"></rect></g></svg></g></svg>