<?xml version="1.0" encoding="UTF-8"?>
<svg version="1.1" viewBox="0 0 1093 989" width="1280" height="1280" xmlns="http://www.w3.org/2000/svg">
<path transform="translate(0)" d="m0 0h1093v989h-1093z" fill="#FDFEFE"/>
<path transform="translate(0)" d="m0 0h1093v989h-1093zm537 33-30 2-35 5-31 7-29 9-19 7-23 10-24 12-17 10-24 16-16 12-11 9-14 12-11 11-5 4-7 8-7 7-7 8-14 17-10 14-14 21-11 19-12 23-9 20-9 24-9 29-7 31-4 27-2 20v62l3 29 6 33 8 30 11 32 11 25 8 16 9 17 15 24 13 18 13 16 9 11 8 8 7 8 13 13 8 7 9 9 7 8 17 17 8 7 13 11 17 13 17 12 18 11 16 9 16 8 19 9 29 11 27 8 26 6 23 4 28 3 19 1h31l30-2 35-5 31-7 29-9 28-11 25-12 19-10 21-13 17-12 13-10 13-11 20-18 13-13 7-8 13-15 15-20 14-21 10-17 9-16 12-26 11-29 8-26 7-31 4-26 2-19 1-22v-28l-2-32-5-35-7-30-8-27-9-24-11-25-12-23-12-20-13-19-13-17-9-11-10-11-7-8-19-19-8-7-16-17-16-16-8-7-13-11-20-15-21-14-15-9-22-12-24-11-26-10-26-8-29-7-32-5-20-2-17-1z" fill="#FEFFFF"/>
<path transform="translate(537,33)" d="m0 0h28l29 2 29 4 33 7 30 9 24 9 29 13 19 10 23 14 16 11 17 13 11 9 11 10 8 7 19 19 7 8 17 16 16 16 7 8 11 13 15 20 16 24 12 21 11 21 12 28 12 36 7 28 6 36 2 20 1 21v28l-2 33-4 28-6 29-8 28-9 25-10 23-8 16-9 17-13 21-12 17-10 13-11 13-18 20-13 13-8 7-15 13-20 15-21 14-17 10-23 12-19 9-29 11-26 8-31 7-35 5-30 2h-31l-31-2-29-4-28-6-29-8-25-9-23-10-16-8-19-10-21-13-17-12-14-11-11-9-11-10-8-7-17-17-7-8-9-9-8-7-13-13-7-8-10-11-11-14-13-18-10-15-14-24-8-16-10-21-9-24-9-28-7-30-5-31-2-21v-62l4-35 6-31 8-29 9-26 11-26 12-24 16-27 11-16 12-16 9-11 9-10 7-8 7-7 4-5 8-7 8-8 11-9 13-11 18-13 17-11 17-10 23-12 17-8 26-10 28-9 30-7 31-5 20-2zm33 100-29 3-27 5-27 7-29 10-20 9-16 8-15 8-19 12-18 13-17 14-12 11-9 8-7 8-8 8-9 11-12 15-16 24-11 19-9 17-11 26-12 36-7 31-4 29-1 12v46l3 28 6 31 6 22 8 24 10 23 8 16 11 20 14 21 19 19 11 9 15 12 20 14 24 14 22 11 27 11 29 9 27 6 28 4 11 1h52l28-3 31-6 31-9 28-11 29-14 20-12 19-13 13-10 14-12 12-11 16-16 9-11 11-13 12-17 12-19 10-18 11-23 9-24 8-26 6-27 4-28 1-11v-51l-3-28-6-31-9-31-8-21-11-24-10-19-14-22-10-14-11-14-9-10-7-8-12-12-15-10-22-13-24-12-28-11-25-8-26-6-25-4-21-2z" fill="#6DD2F4"/>
<path transform="translate(689,57)" d="m0 0 6 1 29 12 25 12 24 14 24 16 17 13 11 9 11 10 8 7 19 19 7 8 17 16 16 16 7 8 11 13 15 20 16 24 12 21 11 21 12 28 12 36 7 28 6 36 2 20 1 21v28l-2 33-4 28-6 29-8 28-9 25-10 23-8 16-9 17-13 21-12 17-10 13-11 13-18 20-13 13-8 7-15 13-20 15-21 14-17 10-23 12-19 9-29 11-26 8-26 6h-5v-26l1-35 2-2 25-7 25-9 18-8 16-8 20-11 18-12 19-14 15-13 12-11 16-16 9-11 10-12 13-18 13-21 13-24 12-28 11-33 7-30 4-27 2-26v-30l-2-26-4-27-6-26-7-24-11-28-13-27-13-22-8-12-14-19-11-13-7-8 7 11 12 21 12 24 10 25 8 24 7 28 5 32 2 24v36l-2 25-4 26-5 23-9 30-11 28-15 30-12 20-11 16-10 13-9 11-18 20-12 12-8 7-13 11-20 15-17 11-21 12-22 11-22 9h-4l-2-10 22-9 25-12 22-13 19-13 13-10 14-12 12-11 15-15 9-11 11-13 12-17 12-19 10-18 11-23 9-24 8-26 6-27 4-28 1-11v-51l-3-28-6-31-9-31-8-21-11-24-10-19-14-22-10-14-11-14-9-10-7-8-11-11-15-10-22-13-24-12-28-11-25-8v-21l1-37 1-3 9 1 30 9 26 10 20 9 22 11-8-6-10-7-21-13-27-14-22-10-18-7-1-1v-9z" fill="#656CF0"/>
<path transform="translate(857,250)" d="m0 0 7 6 9 11 14 18 10 15 12 20 13 25 11 27 8 24 6 24 5 28 2 19 1 16v30l-2 26-5 32-8 32-9 26-10 23-8 16-11 20-12 18-14 19-12 14-11 12-17 17-11 9-9 8-18 13-15 10-21 12-16 8-15 7-24 9-23 7-26 6-27 4-24 2h-34l-25-2-32-5-28-7-30-10-25-11-25-13-21-13-18-13-11-9-14-12-2-3 5 2 16 10 18 10 25 12 26 10 24 7 26 6 27 4 25 2h33l25-2 32-5 29-7 27-9 26-11 24-12 20-12 16-11 13-10 11-9 20-18 11-11 7-8 11-13 15-20 11-17 12-21 12-24 9-23 8-24 6-24 5-28 2-18 1-15v-36l-3-32-5-28-7-27-9-27-11-25-12-24-13-21-3-4z" fill="#FEFFFF"/>
<path transform="translate(525,44)" d="m0 0h51l31 3 33 6 27 7 30 10 26 11 28 14 20 12 22 15 5 5-5-2-28-14-27-11-30-10-32-8-30-5-32-3h-49l-31 3-30 5-36 9-32 11-23 10-19 9-18 10-21 13-18 13-13 10-13 11-24 22-7 8-7 7-9 11-10 12-13 18-13 20-12 21-9 17-13 30-12 36-8 32-5 30-3 33v45l2 25 5 33 6 26 7 24 9 26 12 27 13 25-1 2-13-18-12-19-10-18-8-15-13-30-12-36-7-28-5-29-3-30v-53l3-30 5-29 9-36 11-31 11-25 11-22 10-17 16-24 9-12 8-10 11-13 12-13 19-19 11-9 13-11 19-14 17-11 24-14 24-12 27-11 30-10 34-8 32-5z" fill="#FEFFFF"/>
<path transform="translate(565,73)" d="m0 0h49l32 3 30 5 13 3-1 4-1 37-1 20-8-1-29-6-23-3-12-1h-44l-29 3-27 5-27 7-29 10-20 9-16 8-15 8-19 12-18 13-17 14-12 11-8 7-7 8-8 8-9 11-12 15-16 24-7 12-2-3v-101l13-13 7-8 12-11 11-10 10-8 20-15 18-12 22-13 23-12 28-12 36-12 32-8 30-5z" fill="#6BB9F3"/>
<path transform="translate(304,722)" d="m0 0 4 2 15 13 20 15 15 10 15 9 23 12 20 9 28 10 27 7 26 5 27 3h52l28-3 31-6 31-9 5-2 4 1 2 9-24 8-29 7-32 5-25 2h-33l-25-2-32-5-25-6-25-8-28-11-26-13-17-10-12-8 4 5 11 9 15 12 21 14 17 10 23 12 26 11 27 9 28 7 32 5 25 2h34l32-3 29-5 7-1-2 63-35 5-30 2h-31l-31-2-29-4-28-6-29-8-25-9-23-10-16-8-19-10-21-13-17-12-14-11-11-9-11-10-3-3 2-3 1-55z" fill="#6BB9F3"/>
<path transform="translate(565,73)" d="m0 0h49l32 3 30 5 13 3-1 4-1 37-1 20-8-1-29-6-23-3-12-1h-44l-29 3-27 5-27 7-29 10h-2l-1-2v-23l1-40 23-7 30-7 33-5z" fill="#699CF2"/>
<path transform="translate(445,833)" d="m0 0 16 6 27 9 28 7 32 5 25 2h34l32-3 29-5 7-1-2 63-35 5-30 2h-31l-31-2-29-4-28-6-29-8-17-6v-56z" fill="#699CF2"/>
<path transform="translate(367,454)" d="m0 0 10 1 10 5 12 11h2l8-8 11-7 7-2 10 1 7 4 5 6 2 4v18l-5 15-7 12-9 11-11 11-16 12-5 1-14-10-12-11-10-11-8-14-4-10-2-9v-12l4-9 8-7z" fill="#6BB9F3"/>
<path transform="translate(537,33)" d="m0 0h28l29 2 29 4 33 7 30 9 3 1-1 11-11-3-25-7-27-6-27-4-22-2h-51l-31 3-29 5-32 8-27 9-29 12-26 13-25 15-16 11-17 13-11 9-14 12-23 23-7 8-11 13-12 16-16 24-9 15-14 27-9 20-11 29h-1l-1-15-2-2-1-2 10-24 12-25 11-20 12-19 10-14 9-12 9-11 9-10 7-8 7-7 4-5 8-7 8-8 11-9 13-11 18-13 17-11 17-10 23-12 17-8 26-10 28-9 30-7 31-5 20-2z" fill="#6CD2F4"/>
<path transform="translate(310,178)" d="m0 0 3 3v82l-13 16-14 20-12 20-2-3v-101l13-13 7-8 12-11z" fill="#6BC7F3"/>
<path transform="translate(266,667)" d="m0 0 3 4 12 21 11 16 13 13-1 29-1 55-2 3-4-2-19-19-7-8-8-8 2-101z" fill="#6CC8F3"/>
<path transform="translate(453,407)" d="m0 0 6 1 7 10 4 5 13 9 10 10 5 11 1 4v10l-9 8-5 5-7 8-11 7-9 3h-5l2-11v-17l-5-10-3-3v-2l8-4h9l-4-10-3-13-4 4-8 1-5-2-1-2h-4l-4-12 2-3z" fill="#699DF2"/>
<path transform="translate(344,407)" d="m0 0 9 1 17 6 1 5-4 10-5 2-8 2-7-3-1-1-6 20-4 4 4-2h8l7 3v2l-5 4-4 8-1 3v14l2 13-13-4-10-7-7-7-5-6-9-7v-8l4-13 8-11 20-15 6-10z" fill="#6CBAF3"/>
<path transform="translate(152,312)" d="m0 0 3 3 1 16-7 25-6 27-4 26-2 23v53l3 30 5 29 8 33h-2l-1 9-2 5-2-1-7-23-6-26-5-31-2-21v-62l4-35 6-31 8-29 6-18z" fill="#6DDFF4"/>
<path transform="translate(521,512)" d="m0 0h315l1 6-2 2h-313l-2-2v-5z" fill="#699CF2"/>
<path transform="translate(671,797)" d="m0 0 4 1 2 9-24 8-29 7-32 5-25 2h-33l-25-2-32-5-25-6-8-3v-9l4-1 23 6 26 5 27 3h52l28-3 31-6 31-9z" fill="#699CF2"/>
<path transform="translate(537,33)" d="m0 0h28l29 2 29 4 33 7 30 9 3 1-1 11-11-3-25-7-27-6-27-4-22-2h-51l-31 3-29 5-8 1v-10l5-2 36-6 20-2z" fill="#699CF2"/>
<path transform="translate(554,414)" d="m0 0 7 1 2 2 1 6 1 20 4 16 5 8 2 2-1 5-3 3h-6l-4-4-4-11-2-4-2 1h-12l-9-1v15l-4 4h-6l-1-1v-16l-1-1 1-7 3-3 3-1 7-16 8-11 8-6z" fill="#699CF2"/>
<path transform="translate(453,44)" d="m0 0h4v10l-9 3-25 7-30 11-24 11-25 13-21 13-7 5h-2l-1-11 11-8 26-15 26-13 27-11 34-11z" fill="#6BB9F3"/>
<path transform="translate(721,437)" d="m0 0h12l7 3 1 2v6l-4 1-2 11-4 5-6 3-9 1 1 2 16 3 6 5 1 2v7l-3 6-7 6-5 2-9 1-9-2-5-4-1-2v-7l5-5h5l1 7 2 1h14l3-2v-4l-6-2-12-2-6-3-1-2v-6l4-4-4-4-1-3v-8l3-6 7-6z" fill="#6572F0"/>
<path transform="translate(814,437)" d="m0 0h11l8 4 1 6-2 4h-3l1 13 2 3 4 2-1 6-2 2h-8l-3-4-2-3-7 6-8 2-7-2-4-5-1-2v-11l3-8 7-8 8-4z" fill="#6571F0"/>
<path transform="translate(601,437)" d="m0 0h10l7 3 2 2v7l-1 2h-3v10l2 5 4 2 1 3-3 5-1 1h-7l-4-5-1-3-4 5-5 3h-11l-6-5-2-9 2-10 6-8 6-5z" fill="#699CF2"/>
<path transform="translate(675,437)" d="m0 0h10l8 4 4 7v13l-5 10-9 6h-13l-6-4-2-4v-12l2-5h-3v-7l6-5z" fill="#699DF2"/>
<path transform="translate(751,437)" d="m0 0 5 1 3 3 4 13 1 12 8-2 4-5 1-2v-7l-3-4 1-5 6-4 5 1 2 7-4 17-6 15-8 13-8 9-6 3-6 1-7-3-2-3 1-6 3-3 5 1 2 2h5l5-4 7-11-4 2-5-1-3-5-3-14-4-9-4-1-1-5 2-4z" fill="#6572F0"/>
<path transform="translate(680,512)" d="m0 0h156l1 6-1 1h-156z" fill="#656BF0"/>
<path transform="translate(175,406)" d="m0 0 2 4 1 4v41l-2 116-2 4h-2l-2-8-1-9 1-5 1-7 2-129 1-9z" fill="#6DDFF4"/>
<path transform="translate(178,254)" d="m0 0 3 3 1 12-13 27-11 29-2 5h-1l-1-15-2-2-1-2 10-24 12-25z" fill="#6DD3F4"/>
<path transform="translate(633,437)" d="m0 0 6 1 3 5 4-5 2-1h7l3 3-1 6-2 3-8-1-3 3-2 7-1 15-4 4h-6l1-9v-18l-3-3-2-1 1-5z" fill="#699CF2"/>
<path transform="translate(312,106)" d="m0 0 2 2v10l-21 16-11 9-5 4h-2l-1-9 1-4 14-11 13-10z" fill="#6CC7F3"/>
<path transform="translate(450,408)" d="m0 0h1v15l5-1v8l-6 3h-5l-5-2-1-2h-4l-4-12 2-3z" fill="#75BDF3"/>
<path transform="translate(392,478)" d="m0 0h2l3 35 3-8h7l2-16 2-4 3 1 1 14 1 5 5-1 9 2v2h-9l-2-1-3 10h-2l-1-3-1-14-1-3-2 10h-8l-2 11-2 7-2-1-2-26-1 12-3 1v-3h-6l-3-3 1-2 2 2h6l2-24z" fill="#FEFFFF"/>
<path transform="translate(681,438)" d="m0 0h7l6 4 3 6v13l-5 10-7 5-4-1v-7l7-5 1-2v-9l-4-3-4-2z" fill="#6571F0"/>
<path transform="translate(677,447)" d="m0 0 8 1 5 4v9l-4 5-2 1h-10l-4-4v-10l3-5z" fill="#FEFFFF"/>
<path transform="translate(597,447)" d="m0 0h8l4 2-2 10-6 7-2 1h-7l-4-4v-9l5-5z" fill="#FEFFFF"/>
<path transform="translate(811,447)" d="m0 0h7l4 2-1 8-5 8-3 2h-8l-4-5 1-9 6-5z" fill="#FEFFFF"/>
<path transform="translate(551,426)" d="m0 0 5 1v21h-20l3-9 7-10z" fill="#FEFFFF"/>
<path transform="translate(717,447)" d="m0 0h12v8l-4 4-7 1-5-3v-7z" fill="#FEFFFF"/>
<path transform="translate(178,254)" d="m0 0 3 3 1 12-3 6-3-3-1-10-1-2z" fill="#6EE0F5"/>
<path transform="translate(172,629)" d="m0 0 3 4-1 13-3 4-2-5 1-14z" fill="#6DDFF4"/>
<path transform="translate(306,450)" d="m0 0 2 2-1 16-4-1v-8z" fill="#6BC6F3"/>
<path transform="translate(600,532)" d="m0 0h5v8l-2 2h-3l1-2-2-2v-5z" fill="#8EB6F5"/>
<path transform="translate(454,422)" d="m0 0h2v8l-5 2-1-4h-2l1-2 5-2z" fill="#75A7F3"/>
<path transform="translate(640,532)" d="m0 0h5l2 4-2 3h-3v2h-2z" fill="#94BAF5"/>
<path transform="translate(661,532)" d="m0 0 5 1v5l-5 1-2-2 1-4z" fill="#A3C6F7"/>
<path transform="translate(614,530)" d="m0 0h6l1 3-1 2-3 1-1 3h-2z" fill="#8BBAF5"/>
<path transform="translate(627,532)" d="m0 0h5l1 5-2 2-4-1-1-4z" fill="#9EC4F6"/>
<path transform="translate(537,532)" d="m0 0h5v7h-5l-1-1v-5z" fill="#9ABFF6"/>
<path transform="translate(700,532)" d="m0 0 5 1v3h-4v2l3 1-5-1v-5z" fill="#87B3F4"/>
<path transform="translate(649,532)" d="m0 0h4l1 4-4 1 3 2-5-1v-5z" fill="#83AFF4"/>
</svg>
